# xmcd CD database file
#
# Track frame offsets:
#	150
#	15095
#	32120
#	48430
#	63577
#	80280
#	97817
#	116742
#	136627
#	153985
#
# Disc length: 2342 seconds
#
# Revision: 0
# Processed by: cddbd v1.5.1PL2 Copyright (c) Steve Scherf et al.
# Submitted via: CDex 1.51
#
DISCID=6c09240a
DTITLE=Nuit Blanche - ...sur le vif!
DYEAR=1995
DGENRE=Québécois
TTITLE0=y'a-tu quelqu'un...
TTITLE1=rouler la nuit
TTITLE2=chanson pour Maude
TTITLE3=Égo blues
TTITLE4=ton rêve
TTITLE5=chimère
TTITLE6=monde de fou
TTITLE7=le rideau
TTITLE8=le mur des mots
TTITLE9=fragile
EXTD=YEAR: 1995
EXTT0=
EXTT1=
EXTT2=
EXTT3=
EXTT4=
EXTT5=
EXTT6=
EXTT7=
EXTT8=
EXTT9=
PLAYORDER=
